#N canvas -7 0 1920 989 12;
#X obj 920 501 netsend -u -b;
#X msg 877 150 1;
#X obj 877 179 oscformat -f f play;
#X text 1014 177 /play 1;
#X obj 893 234 oscformat -f f stop;
#X msg 1106 179 1;
#X text 1033 232 /stop 1;
#X obj 924 326 oscformat -f f master volume;
#X text 970 345 /master/volume 0.0-1.0;
#X obj 906 297 nbx 5 17 -1e+37 1e+37 0 0 empty empty empty 0 -10 0 12 #fcfcfc #000000 #000000 0 256;
#X msg 975 295 0.5;
#X obj 909 267 hsl 162 19 0 1 0 0 empty empty empty -2 -10 0 12 #fcfcfc #000000 #000000 0 1;
#X msg 994 404 disconnect;
#X msg 5 14 devices;
#X msg 80 17 close;
#X obj 5 115 pdchoco/slip_parse;
#X obj 5 146 oscparse;
#X obj 5 173 list trim;
#X obj 4 345 tgl 19 0 empty empty empty 0 -10 0 12 #fcfcfc #000000 #000000 0 1;
#X obj 112 318 nbx 5 17 -1e+37 1e+37 0 0 empty empty empty 0 -10 0 12 #fcfcfc #000000 #000000 0 256;
#X text 23 344 interrupteur;
#X text 178 319 nombre2;
#X msg 908 19 0;
#X msg 952 19 1;
#X obj 877 117 bng 19 250 50 0 empty empty empty 0 -10 0 12 #fcfcfc #000000 #000000;
#X obj 962 119 bng 19 250 50 0 empty empty empty 0 -10 0 12 #fcfcfc #000000 #000000;
#X obj 924 57 select 0 1;
#X text 896 118 Bang;
#X text 983 121 Bang;
#X text 1074 264 slider;
#X obj 868 22 tgl 19 0 empty empty empty 0 -10 0 12 #fcfcfc #000000 #000000 0 1;
#X obj 5 398 change;
#X text 52 397 transforme le flux en évènement;
#X text 6 419 LIEN DIRECT;
#X obj 307 304 change;
#X text 366 335 transforme le flux en évènement;
#X obj 288 159 pdchoco/stream_flip_flop;
#X obj 319 366 tgl 19 0 empty empty empty 0 -10 0 12 #fcfcfc #000000 #000000 0 1;
#X text 347 368 LIEN FLIP FLOP/TOGGLE;
#X text 675 263 /vkb_midi/@/note/# i;
#X msg 635 203 127;
#X msg 686 206 0;
#X obj 397 610 nbx 5 17 -1e+37 1e+37 0 0 empty empty empty 0 -10 0 12 #fcfcfc #000000 #000000 0 256;
#X obj 464 442 * 127;
#X obj 514 490 / 4095;
#X obj 190 691 pdchoco/scope 0 127;
#X obj 432 521 pdchoco/stream_smooth 0.1 0.1;
#X msg 945 378 connect 127.0.0.1 9888;
#X obj 116 191 print OSC;
#X obj 5 85 comport;
#X obj 4 285 route but pot;
#X msg 99 48 baud 115200 \, open 3;
#X obj 574 61 sel 1 0;
#X obj 614 247 oscformat -f i vkb_midi 1 note 72 0;
#X obj 589 302 oscformat -f i vkb_midi 1 note 72 127;
#X obj 888 607 oscformat -f i vkb_midi 3 note 48 0;
#X obj 795 692 oscformat -f i vkb_midi 3 note 48 64;
#X obj 206 252 print direct;
#X obj 848 825 print direct;
#X obj 556 812 oscformat -f i vkb_midi 3 cc 9;
#X obj 402 867 oscformat -f i vkb_midi 1 cc 14;
#X obj 162 444 * 64;
#X obj 162 493 / 4095;
#X obj 154 546 pdchoco/stream_smooth 0.1 0.1;
#X obj 485 604 nbx 5 17 -1e+37 1e+37 0 0 empty empty empty 0 -10 0 12 #fcfcfc #000000 #000000 0 256;
#X connect 1 0 2 0;
#X connect 2 0 0 0;
#X connect 4 0 0 0;
#X connect 5 0 4 0;
#X connect 7 0 0 0;
#X connect 9 0 7 0;
#X connect 10 0 7 0;
#X connect 11 0 9 0;
#X connect 12 0 0 0;
#X connect 13 0 49 0;
#X connect 14 0 49 0;
#X connect 15 0 16 0;
#X connect 16 0 17 0;
#X connect 17 0 50 0;
#X connect 18 0 31 0;
#X connect 18 0 36 0;
#X connect 19 0 43 0;
#X connect 19 0 61 0;
#X connect 22 0 26 0;
#X connect 23 0 26 0;
#X connect 24 0 1 0;
#X connect 25 0 5 0;
#X connect 26 0 24 0;
#X connect 26 1 25 0;
#X connect 30 0 26 0;
#X connect 34 0 37 0;
#X connect 34 0 57 0;
#X connect 34 0 52 0;
#X connect 36 0 34 0;
#X connect 37 0 30 0;
#X connect 40 0 53 0;
#X connect 41 0 53 0;
#X connect 42 0 60 0;
#X connect 42 0 59 0;
#X connect 43 0 44 0;
#X connect 44 0 46 0;
#X connect 46 0 42 0;
#X connect 46 0 45 0;
#X connect 47 0 0 0;
#X connect 49 0 15 0;
#X connect 50 0 18 0;
#X connect 50 1 19 0;
#X connect 51 0 49 0;
#X connect 52 0 56 0;
#X connect 52 0 54 0;
#X connect 52 1 53 0;
#X connect 52 1 55 0;
#X connect 53 0 0 0;
#X connect 54 0 0 0;
#X connect 55 0 0 0;
#X connect 56 0 0 0;
#X connect 59 0 0 0;
#X connect 60 0 0 0;
#X connect 61 0 62 0;
#X connect 62 0 63 0;
#X connect 63 0 64 0;
#X connect 64 0 59 0;
